<svg width="512" height="512" viewBox="0 0 512 512" fill="none" xmlns="http://www.w3.org/2000/svg">
<rect width="512" height="512" rx="78" fill="#8C30DD"/>
<g filter="url(#filter0_d_28_19)">
<path d="M237.529 347.61L274.758 384.839C278.424 388.505 282.777 391.414 287.569 393.399C292.359 395.383 297.494 396.404 302.679 396.404C307.864 396.404 313 395.383 317.79 393.399C322.581 391.414 326.934 388.505 330.601 384.839C334.267 381.172 337.176 376.819 339.16 372.029C341.145 367.237 342.167 362.103 342.167 356.918C342.167 351.732 341.145 346.597 339.16 341.806C337.176 337.015 334.267 332.662 330.601 328.996M293.372 291.767L339.908 338.303C347.314 345.708 357.357 349.868 367.83 349.868C378.302 349.868 388.345 345.708 395.751 338.303C403.157 330.898 407.316 320.854 407.316 310.381C407.316 299.909 403.157 289.865 395.751 282.46L323.527 210.237C313.056 199.778 298.863 193.905 284.065 193.905C269.267 193.905 255.073 199.778 244.603 210.237L228.221 226.617C220.816 234.022 210.773 238.182 200.3 238.182C189.828 238.182 179.784 234.022 172.378 226.617C164.973 219.212 160.814 209.168 160.814 198.695C160.814 188.223 164.973 178.179 172.378 170.774L224.685 118.467C241.666 101.531 263.811 90.7422 287.613 87.8094C311.417 84.8758 335.518 89.9661 356.103 102.273L364.851 107.486C372.777 112.269 382.201 113.928 391.284 112.138L423.673 105.623M423.673 87.0091L442.287 291.767H405.058M88.6143 87.0091L70 291.767L190.993 412.761C198.399 420.166 208.442 424.325 218.915 424.325C229.387 424.325 239.431 420.166 246.836 412.761C254.242 405.355 258.402 395.311 258.402 384.839C258.402 374.366 254.242 364.323 246.836 356.918M88.6143 105.623H237.529" stroke="white" stroke-width="25" stroke-linecap="round" stroke-linejoin="round" shape-rendering="crispEdges"/>
</g>
<defs>
<filter id="filter0_d_28_19" x="53.4999" y="74.5" width="405.287" height="370.325" filterUnits="userSpaceOnUse" color-interpolation-filters="sRGB">
<feFlood flood-opacity="0" result="BackgroundImageFix"/>
<feColorMatrix in="SourceAlpha" type="matrix" values="0 0 0 0 0 0 0 0 0 0 0 0 0 0 0 0 0 0 127 0" result="hardAlpha"/>
<feOffset dy="4"/>
<feGaussianBlur stdDeviation="2"/>
<feComposite in2="hardAlpha" operator="out"/>
<feColorMatrix type="matrix" values="0 0 0 0 0 0 0 0 0 0 0 0 0 0 0 0 0 0 0.25 0"/>
<feBlend mode="normal" in2="BackgroundImageFix" result="effect1_dropShadow_28_19"/>
<feBlend mode="normal" in="SourceGraphic" in2="effect1_dropShadow_28_19" result="shape"/>
</filter>
</defs>
</svg>
